<mxfile host="app.diagrams.net" agent="Mozilla/5.0 (Windows NT 10.0; Win64; x64) AppleWebKit/537.36 (KHTML, like Gecko) Chrome/136.0.0.0 Safari/537.36 Edg/136.0.0.0" version="27.1.1">
  <diagram name="Trang-1" id="9Pps_Y45ls3U35IKD9cY">
    <mxGraphModel dx="837" dy="431" grid="1" gridSize="10" guides="1" tooltips="1" connect="1" arrows="1" fold="1" page="1" pageScale="1" pageWidth="827" pageHeight="1169" math="0" shadow="0">
      <root>
        <mxCell id="0" />
        <mxCell id="1" parent="0" />
        <mxCell id="eUwJB693RIlc8PY_Pesp-1" value="User" style="shape=umlActor;verticalLabelPosition=bottom;verticalAlign=top;html=1;outlineConnect=0;" vertex="1" parent="1">
          <mxGeometry x="150" y="220" width="30" height="60" as="geometry" />
        </mxCell>
        <mxCell id="eUwJB693RIlc8PY_Pesp-2" value="" style="rounded=0;whiteSpace=wrap;html=1;" vertex="1" parent="1">
          <mxGeometry x="210" y="60" width="520" height="390" as="geometry" />
        </mxCell>
        <mxCell id="eUwJB693RIlc8PY_Pesp-3" value="Đăng xuất" style="ellipse;whiteSpace=wrap;html=1;" vertex="1" parent="1">
          <mxGeometry x="290" y="70" width="120" height="80" as="geometry" />
        </mxCell>
        <mxCell id="eUwJB693RIlc8PY_Pesp-4" value="Cài đặt" style="ellipse;whiteSpace=wrap;html=1;" vertex="1" parent="1">
          <mxGeometry x="490" y="140" width="120" height="80" as="geometry" />
        </mxCell>
        <mxCell id="eUwJB693RIlc8PY_Pesp-5" value="Đăng nhập" style="ellipse;whiteSpace=wrap;html=1;" vertex="1" parent="1">
          <mxGeometry x="290" y="210" width="120" height="80" as="geometry" />
        </mxCell>
        <mxCell id="eUwJB693RIlc8PY_Pesp-6" value="Đổi mật khẩu" style="ellipse;whiteSpace=wrap;html=1;" vertex="1" parent="1">
          <mxGeometry x="520" y="250" width="120" height="80" as="geometry" />
        </mxCell>
        <mxCell id="eUwJB693RIlc8PY_Pesp-7" value="Quên mật khẩu" style="ellipse;whiteSpace=wrap;html=1;" vertex="1" parent="1">
          <mxGeometry x="294" y="320" width="120" height="80" as="geometry" />
        </mxCell>
        <mxCell id="eUwJB693RIlc8PY_Pesp-9" value="extend" style="html=1;verticalAlign=bottom;endArrow=open;dashed=1;endSize=8;curved=0;rounded=0;entryX=1;entryY=0;entryDx=0;entryDy=0;exitX=0;exitY=0.5;exitDx=0;exitDy=0;" edge="1" parent="1" source="eUwJB693RIlc8PY_Pesp-4" target="eUwJB693RIlc8PY_Pesp-5">
          <mxGeometry relative="1" as="geometry">
            <mxPoint x="600" y="300" as="sourcePoint" />
            <mxPoint x="520" y="300" as="targetPoint" />
          </mxGeometry>
        </mxCell>
        <mxCell id="eUwJB693RIlc8PY_Pesp-11" value="include" style="html=1;verticalAlign=bottom;endArrow=open;dashed=1;endSize=8;curved=0;rounded=0;entryX=0.5;entryY=0;entryDx=0;entryDy=0;exitX=0.5;exitY=1;exitDx=0;exitDy=0;" edge="1" parent="1" source="eUwJB693RIlc8PY_Pesp-3" target="eUwJB693RIlc8PY_Pesp-5">
          <mxGeometry relative="1" as="geometry">
            <mxPoint x="538" y="210" as="sourcePoint" />
            <mxPoint x="440" y="252" as="targetPoint" />
          </mxGeometry>
        </mxCell>
        <mxCell id="eUwJB693RIlc8PY_Pesp-13" value="extend" style="html=1;verticalAlign=bottom;endArrow=open;dashed=1;endSize=8;curved=0;rounded=0;entryX=1;entryY=0.5;entryDx=0;entryDy=0;exitX=0;exitY=0.5;exitDx=0;exitDy=0;" edge="1" parent="1" source="eUwJB693RIlc8PY_Pesp-6" target="eUwJB693RIlc8PY_Pesp-5">
          <mxGeometry relative="1" as="geometry">
            <mxPoint x="550" y="360" as="sourcePoint" />
            <mxPoint x="470" y="300" as="targetPoint" />
          </mxGeometry>
        </mxCell>
        <mxCell id="eUwJB693RIlc8PY_Pesp-14" value="" style="endArrow=none;html=1;rounded=0;exitX=1;exitY=0.3333333333333333;exitDx=0;exitDy=0;exitPerimeter=0;entryX=0;entryY=0.5;entryDx=0;entryDy=0;" edge="1" parent="1" source="eUwJB693RIlc8PY_Pesp-1" target="eUwJB693RIlc8PY_Pesp-5">
          <mxGeometry width="50" height="50" relative="1" as="geometry">
            <mxPoint x="530" y="330" as="sourcePoint" />
            <mxPoint x="290" y="250" as="targetPoint" />
          </mxGeometry>
        </mxCell>
        <mxCell id="eUwJB693RIlc8PY_Pesp-15" value="" style="endArrow=none;html=1;rounded=0;exitX=1;exitY=0.3333333333333333;exitDx=0;exitDy=0;exitPerimeter=0;entryX=0;entryY=0.5;entryDx=0;entryDy=0;" edge="1" parent="1" source="eUwJB693RIlc8PY_Pesp-1" target="eUwJB693RIlc8PY_Pesp-7">
          <mxGeometry width="50" height="50" relative="1" as="geometry">
            <mxPoint x="260" y="260" as="sourcePoint" />
            <mxPoint x="370" y="250" as="targetPoint" />
          </mxGeometry>
        </mxCell>
        <mxCell id="eUwJB693RIlc8PY_Pesp-16" value="" style="endArrow=none;html=1;rounded=0;exitX=1;exitY=0.3333333333333333;exitDx=0;exitDy=0;exitPerimeter=0;entryX=0;entryY=0.5;entryDx=0;entryDy=0;" edge="1" parent="1" source="eUwJB693RIlc8PY_Pesp-1" target="eUwJB693RIlc8PY_Pesp-3">
          <mxGeometry width="50" height="50" relative="1" as="geometry">
            <mxPoint x="290" y="250" as="sourcePoint" />
            <mxPoint x="400" y="260" as="targetPoint" />
          </mxGeometry>
        </mxCell>
      </root>
    </mxGraphModel>
  </diagram>
</mxfile>
